# xmcd CD database file
#
# Track frame offsets:
#	150
#	18824
#	32075
#	47023
#	60315
#	76463
#	93002
#	109960
#	125852
#	138812
#	153935
#	171094
#	187177
#	200208
#	216917
#	239588
#
# Disc length: 3444 seconds
#
# Revision: 1
# Processed by: cddbd v1.5.2PL0 Copyright (c) Steve Scherf et al.
# Submitted via: CDex 1.70beta2
#
DISCID=de0d7210
DTITLE=Işıl Yücesoy - En İyileriyle Işıl Yücesoy
DYEAR=2005
DGENRE=Turkish Oldies
TTITLE0=Ya Seninle Ya Sensiz
TTITLE1=Çıkmaz Sokak
TTITLE2=İçmeden Sarhoş
TTITLE3=Çalamazsın Mutluluğu
TTITLE4=Açılmamış Mektup
TTITLE5=Ne Var Ne Yok
TTITLE6=Bir Var Bir Yok
TTITLE7=Niye Düşünüyorsun
TTITLE8=Tatlıya Bağla
TTITLE9=Sen İnanma
TTITLE10=Seviyorum
TTITLE11=Sen Seni
TTITLE12=Bir Evet Yeter
TTITLE13=Gurur
TTITLE14=Aşk Tuzağı
TTITLE15=Köye Geldi Bir Gelin
EXTD=YEAR: 2005
EXTT0=
EXTT1=
EXTT2=
EXTT3=
EXTT4=
EXTT5=
EXTT6=
EXTT7=
EXTT8=
EXTT9=
EXTT10=
EXTT11=
EXTT12=
EXTT13=
EXTT14=
EXTT15=
PLAYORDER=
